<?xml version="1.0" encoding="utf-8"?>
<!-- Generator: Adobe Illustrator 25.0.0, SVG Export Plug-In . SVG Version: 6.00 Build 0)  -->
<svg version="1.1" id="Layer_1" xmlns="http://www.w3.org/2000/svg" xmlns:xlink="http://www.w3.org/1999/xlink" x="0px" y="0px"
	 viewBox="0 0 360 360" style="enable-background:new 0 0 360 360;" xml:space="preserve">
<style type="text/css">
	.st0{fill:#FFFFFF;}
	.st1{fill:none;}
</style>
<g>
	<path class="st0" d="M283.8,37.9c18.3,16.2,23.6,37.6,26,60.9c6.4,64.5,13.4,128.9,20.1,193.4c0.3,3.3,1.3,4.7,4.5,6.1
		c14.4,5.9,22.5,21,19.5,35.5c-3.3,16-16.4,27-32.5,27.1c-95.2-0.2-190.4-0.3-285.5-0.2c-31.1,0.1-41.4-30.5-30.5-48.6
		c3.9-6.4,9.2-11.2,16-14.4c1.8-0.8,3.8-3.3,3.9-5.2C32.6,224.4,39.8,156.2,46.9,88C49.2,64.8,60.2,46.3,78,31.7
		c24.6-20.2,53.7-28.3,84.7-30.3c32.7-2.2,65,1.5,94.6,17.1c9.7,5.1,18.3,12.1,27.5,18.2C284.5,37.1,284.2,37.5,283.8,37.9z
		 M311,295.7c-0.1-1.9-0.2-2.8-0.3-3.6c-6.9-66.1-14.2-132-20.6-198.1c-2.3-23.7-13.7-41-33.1-53.3c-43.2-27.4-110.9-28.3-155.3-2
		C82.1,50.4,68.3,66.4,65.9,90.1c-6,57.6-12.1,115.3-18.2,173c-1.1,10.6-2.2,21.1-3.3,32.6c7.3-0.2,14.1-0.6,21-0.4
		c6.8,0.1,10.5,4.5,9.7,10.7c-0.7,4.9-4.8,8.2-10.8,8.3c-10.2,0.1-20.4-0.2-30.5,0.2c-9.6,0.2-15.6,8.9-12.8,17.9
		c2,6.5,6.9,9.3,16.2,9.3c93.7,0,187.5,0,281.2,0c1.8,0,3.6,0,5.3-0.2c8-1.3,12.8-8.7,11-16.6c-1.7-7.3-6.4-10.5-15.8-10.5
		c-61.1,0-122.2,0-183.2,0c-2,0-3.9,0-5.9-0.2c-3.8-0.6-6.5-2.4-7.8-6.4c-2.2-7.1,2.7-12.5,11.4-12.4c53.1,0,106,0,159.1,0
		C298.6,295.4,304.4,295.6,311,295.7z"/>
	<path class="st1" d="M311,295.7c-6.5-0.2-12.4-0.3-18.3-0.3c-53.1,0-106.1-0.1-159.1,0c-8.8,0-13.6,5.4-11.4,12.4
		c1.1,3.9,4,5.8,7.8,6.4c1.9,0.2,3.9,0.2,5.9,0.2c61.1,0,122.2,0,183.2,0c9.3,0,14,3.1,15.8,10.5c1.9,7.8-3,15.3-11,16.6
		c-1.7,0.2-3.5,0.2-5.3,0.2c-94,0.1-187.7,0.1-281.5,0.1c-9.3,0-14.1-2.9-16.2-9.3c-2.8-9,3.3-17.6,12.8-17.9
		c10.2-0.2,20.4,0,30.5-0.2c6-0.1,10.1-3.4,10.8-8.3c0.8-6.2-2.9-10.5-9.7-10.7c-6.8-0.1-13.6,0.3-21,0.4c1.1-11.4,2.3-22,3.3-32.6
		c6-57.6,12.2-115.4,18.2-173c2.5-23.8,16.2-39.8,35.8-51.4c44.4-26.3,112.1-25.4,155.3,2C276.6,53,288,70.2,290.3,94
		c6.3,66.1,13.6,132.1,20.4,198.1C310.8,293,310.8,293.9,311,295.7z M154.6,219.2c-4.5-4.3-11.8-4.3-16.4,0.1s-4.6,12.4,0,16.8
		c4.4,4.2,12,4.2,16.5-0.2C159.3,231.5,159.2,223.8,154.6,219.2z M200.7,173.2c4.6,4.7,12.2,4.8,16.7,0.1c4.2-4.2,4.3-12.2,0.3-16.5
		c-4.2-4.3-12.5-4.3-16.8,0C196.3,161.2,196.3,168.6,200.7,173.2z M91.8,173.2c4.7-4.7,4.8-12,0.2-16.7c-4.6-4.4-11.8-4.4-16.3,0
		c-4.6,4.4-4.7,12.5-0.2,16.8C79.9,177.8,87.4,177.7,91.8,173.2z M185.7,79.4c4.8-4.7,4.9-12.1,0.3-16.7c-4.4-4.4-11.8-4.4-16.4-0.1
		c-4.7,4.5-4.7,12.2-0.2,16.7C173.8,83.9,181.2,83.9,185.7,79.4z M107,188.2c-4.5,4.5-4.7,11.8-0.4,16.4c4.3,4.5,12.2,4.6,16.8,0
		c4.5-4.5,4.6-11.8,0.2-16.4C119,183.4,111.7,183.4,107,188.2z M169.3,141.8c4.6,4.7,12.1,4.7,16.7,0.1c4.3-4.3,4.4-12.2,0.2-16.6
		s-11.8-4.5-16.4-0.2C164.9,129.9,164.7,137.2,169.3,141.8z M217.6,94.4c-4.4-4.6-11.7-4.8-16.3-0.5c-4.9,4.6-5.3,12-0.9,16.7
		c4.2,4.6,12.3,4.7,16.8,0.2C221.8,106.2,221.9,98.9,217.6,94.4z M279.7,173.4c4.8-4.7,4.9-12.1,0.2-16.7
		c-4.4-4.4-11.8-4.5-16.4-0.1s-4.7,12.4-0.2,16.8C267.7,177.8,275.2,177.7,279.7,173.4z M107,79.4c4.5,4.5,11.9,4.4,16.3,0
		c4.5-4.3,4.5-12.7,0.2-16.9c-4.2-4.1-12.2-4-16.5,0.2C102.2,67.2,102.2,74.8,107,79.4z M154.7,110.4c4.3-4.5,4.4-12.1,0.1-16.4
		s-12.6-4.2-16.9,0.2c-4.4,4.6-4.3,11.8,0.2,16.3C142.9,115.3,150.1,115.2,154.7,110.4z M138.3,156.8c-4.7,4.7-4.7,12.4-0.2,16.8
		c4.3,4.2,12.1,4.1,16.6-0.2c4.6-4.6,4.6-12.4,0-16.8C150.1,152.1,142.9,152.3,138.3,156.8z M263.4,94.1c-4.4,4.4-4.4,12.7,0,16.8
		c4.2,4.1,12.3,4,16.5-0.3c4.5-4.5,4.4-12.4-0.2-16.8C275.4,89.6,267.8,89.7,263.4,94.1z M217.1,236c4.8-4.7,4.9-12.1,0.2-16.7
		c-4.5-4.3-12-4.3-16.4,0.1c-4.5,4.3-4.6,12.6-0.1,16.9C205.2,240.5,212.6,240.4,217.1,236z M75.7,93.9c-4.4,4.2-4.6,12.6-0.2,16.9
		c4.2,4.2,12.2,4.2,16.5,0c4.5-4.3,4.7-11.8,0.6-16.4C88.2,89.7,80.3,89.5,75.7,93.9z M75.7,219.5c-4.7,4.7-4.8,11.7-0.4,16.2
		c4.6,4.7,12.1,4.9,16.7,0.2c4.4-4.4,4.5-12.7,0.1-16.9C87.6,214.7,80.2,215,75.7,219.5z M232.2,62.9c-4.7,4.7-4.7,12.4-0.2,16.8
		c4.3,4.2,12.2,4,16.6-0.2c4.7-4.5,4.7-12.2-0.1-16.7C243.9,58.3,236.8,58.4,232.2,62.9z M248.5,204.6c4.7-4.7,4.7-12.4,0.2-16.7
		c-4.2-4.1-12.2-4-16.5,0.2c-4.7,4.6-4.7,12.2,0.1,16.7C236.8,209.1,244,209.1,248.5,204.6z M123.1,142c4.9-4.7,4.9-12.1,0.2-16.7
		c-4.4-4.4-11.9-4.4-16.4-0.1c-4.5,4.3-4.7,12.7-0.2,16.9C111.1,146.6,118.6,146.5,123.1,142z M186.2,188.1
		c-4.4-4.6-12.2-4.6-16.8,0c-4.2,4.2-4.3,12.2-0.2,16.5c4.2,4.3,12.6,4.4,16.9-0.1C190.5,200.2,190.5,192.5,186.2,188.1z
		 M263.6,236.1c4.6,4.4,11.8,4.3,16.3-0.2c4.4-4.4,4.4-12.7,0.1-16.9c-4.6-4.4-12.2-4-16.8,0.8C258.8,224.5,259,231.6,263.6,236.1z
		 M248.5,125.3c-4.5-4.3-11.9-4.2-16.4,0.2c-4.6,4.6-4.6,12.4,0,16.8c4.5,4.3,12,4.2,16.4-0.2C253.2,137.5,253.2,129.8,248.5,125.3z
		"/>
	<path class="st0" d="M154.6,219.2c4.7,4.5,4.7,12.3,0,16.8c-4.5,4.3-12.1,4.4-16.5,0.2c-4.5-4.3-4.5-12.3,0-16.8
		C142.8,214.9,150.2,214.9,154.6,219.2z"/>
	<path class="st0" d="M200.7,173.2c-4.4-4.6-4.3-11.8,0.2-16.3c4.4-4.4,12.7-4.4,16.8,0c4.2,4.3,4,12.2-0.3,16.5
		C212.8,177.9,205.2,177.8,200.7,173.2z"/>
	<path class="st0" d="M91.8,173.2c-4.5,4.5-11.9,4.6-16.4,0.2S71,161,75.6,156.6s11.8-4.5,16.3,0C96.7,161.2,96.7,168.6,91.8,173.2z
		"/>
	<path class="st0" d="M185.7,79.4c-4.6,4.4-11.9,4.4-16.3,0c-4.5-4.5-4.5-12.3,0.2-16.7c4.6-4.4,11.9-4.4,16.4,0.1
		C190.7,67.4,190.5,74.8,185.7,79.4z"/>
	<path class="st0" d="M107,188.2c4.7-4.7,12.1-4.7,16.7,0c4.3,4.5,4.2,11.9-0.2,16.4c-4.5,4.5-12.5,4.5-16.8,0
		C102.2,199.9,102.5,192.7,107,188.2z"/>
	<path class="st0" d="M169.3,141.8c-4.6-4.7-4.4-11.9,0.6-16.6c4.6-4.2,12.2-4.2,16.4,0.2c4.2,4.3,4,12.2-0.2,16.6
		C181.5,146.6,173.9,146.5,169.3,141.8z"/>
	<path class="st0" d="M217.6,94.4c4.3,4.5,4.2,12-0.3,16.3c-4.5,4.5-12.6,4.4-16.8-0.2c-4.4-4.7-4-12.2,0.9-16.7
		C205.9,89.5,213.3,89.7,217.6,94.4z"/>
	<path class="st0" d="M279.7,173.4c-4.6,4.4-11.9,4.4-16.4,0.1c-4.4-4.4-4.4-12.4,0.2-16.8c4.5-4.3,12-4.3,16.4,0.1
		C284.6,161.3,284.5,168.8,279.7,173.4z"/>
	<path class="st0" d="M107,79.4c-4.6-4.6-4.7-12.3,0.1-16.7c4.3-4.2,12.2-4.2,16.5-0.2c4.3,4.2,4.2,12.6-0.2,16.9
		C118.8,83.9,111.4,83.8,107,79.4z"/>
	<path class="st0" d="M154.7,110.4c-4.7,4.9-12,5-16.6,0.2c-4.5-4.5-4.6-11.8-0.2-16.3c4.3-4.5,12.7-4.7,16.9-0.2
		C159.2,98.4,159.2,105.9,154.7,110.4z"/>
	<path class="st0" d="M138.3,156.8c4.6-4.6,11.8-4.7,16.3-0.3c4.7,4.5,4.7,12.3,0,16.8c-4.3,4.3-12.1,4.4-16.6,0.2
		C133.6,169.2,133.7,161.5,138.3,156.8z"/>
	<path class="st0" d="M263.4,94.1c4.4-4.4,12-4.5,16.4-0.2c4.6,4.4,4.7,12.3,0.2,16.8c-4.2,4.2-12.2,4.3-16.5,0.3
		C259,106.9,259.1,98.4,263.4,94.1z"/>
	<path class="st0" d="M217.1,236c-4.5,4.5-11.9,4.6-16.4,0.2c-4.4-4.2-4.3-12.5,0.1-16.9c4.5-4.3,11.9-4.4,16.4-0.1
		C222,223.9,222,231.2,217.1,236z"/>
	<path class="st0" d="M75.7,93.9c4.7-4.5,12.5-4.2,16.8,0.5c4.2,4.7,3.9,12.1-0.6,16.4c-4.4,4.2-12.3,4.2-16.5,0
		C71,106.5,71.2,98.2,75.7,93.9z"/>
	<path class="st0" d="M75.7,219.5c4.5-4.5,11.9-4.6,16.4-0.4c4.4,4.2,4.4,12.4-0.1,16.9c-4.7,4.7-12.2,4.5-16.7-0.2
		C70.9,231.1,71.1,224,75.7,219.5z"/>
	<path class="st0" d="M232.2,62.9c4.6-4.6,11.7-4.7,16.3-0.2c4.7,4.5,4.7,12.2,0.1,16.7c-4.4,4.2-12.2,4.3-16.6,0.2
		C227.5,75.3,227.6,67.6,232.2,62.9z"/>
	<path class="st0" d="M248.5,204.6c-4.6,4.6-11.8,4.6-16.2,0.1c-4.7-4.6-4.7-12.2-0.1-16.7c4.4-4.2,12.3-4.3,16.5-0.2
		C253.2,192.2,253.1,199.9,248.5,204.6z"/>
	<path class="st0" d="M123.1,142c-4.6,4.4-12,4.5-16.4,0.2c-4.4-4.2-4.2-12.6,0.2-16.9c4.6-4.4,11.9-4.4,16.4,0.1
		C128.1,130,127.9,137.3,123.1,142z"/>
	<path class="st0" d="M186.2,188.1c4.2,4.4,4.2,12.1-0.1,16.4c-4.4,4.4-12.7,4.4-16.9,0.1c-4.1-4.2-4-12.2,0.2-16.5
		C173.8,183.5,181.8,183.6,186.2,188.1z"/>
	<path class="st0" d="M263.6,236.1c-4.7-4.5-4.7-11.6-0.4-16.2c4.5-4.8,12.2-5.1,16.8-0.8c4.4,4.2,4.4,12.4-0.1,16.9
		S268.2,240.5,263.6,236.1z"/>
	<path class="st0" d="M248.5,125.3c4.7,4.5,4.7,12.2,0.1,16.7c-4.4,4.4-12,4.5-16.4,0.2c-4.6-4.4-4.7-12.3,0-16.8
		C236.5,121,244,120.9,248.5,125.3z"/>
</g>
</svg>
